<svg width="20" height="20" viewBox="0 0 20 20" fill="none" xmlns="http://www.w3.org/2000/svg">
<mask id="mask0_14501_108"  maskUnits="userSpaceOnUse" x="0" y="0" width="20" height="20">
<rect width="20" height="20" fill="#D9D9D9"/>
</mask>
<g mask="url(#mask0_14501_108)">
<path d="M6.69607 13.9727C6.82496 13.9727 6.93267 13.9285 7.0192 13.8402C7.10574 13.7519 7.14901 13.6414 7.14901 13.5088V9.12897C7.14901 9.00743 7.10412 8.90212 7.01432 8.81305C6.92453 8.724 6.81832 8.67947 6.6957 8.67947C6.56202 8.67947 6.45191 8.724 6.36537 8.81305C6.27884 8.90212 6.23557 9.00743 6.23557 9.12897V13.5088C6.23557 13.6414 6.2801 13.7519 6.36916 13.8402C6.45823 13.9285 6.5672 13.9727 6.69607 13.9727ZM10.007 13.9727C10.1358 13.9727 10.2436 13.9285 10.3301 13.8402C10.4166 13.7519 10.4599 13.6414 10.4599 13.5088V6.47674C10.4599 6.35519 10.415 6.24988 10.3252 6.16082C10.2354 6.07175 10.1292 6.02722 10.0066 6.02722C9.87291 6.02722 9.7628 6.07175 9.67626 6.16082C9.58972 6.24988 9.54645 6.35519 9.54645 6.47674V13.5088C9.54645 13.6414 9.59098 13.7519 9.68005 13.8402C9.76912 13.9285 9.87809 13.9727 10.007 13.9727ZM13.3114 13.9727C13.4403 13.9727 13.548 13.9285 13.6346 13.8402C13.7211 13.7519 13.7644 13.6414 13.7644 13.5088V11.7219C13.7644 11.6056 13.7195 11.5016 13.6297 11.4099C13.5399 11.3182 13.4337 11.2724 13.3111 11.2724C13.1774 11.2724 13.0673 11.3182 12.9807 11.4099C12.8942 11.5016 12.8509 11.6056 12.8509 11.7219V13.5088C12.8509 13.6414 12.8955 13.7519 12.9845 13.8402C13.0736 13.9285 13.1826 13.9727 13.3114 13.9727ZM4.14232 17.0256C3.82845 17.0256 3.55532 16.9094 3.32295 16.677C3.09056 16.4446 2.97437 16.1715 2.97437 15.8576V4.14232C2.97437 3.82845 3.09056 3.55532 3.32295 3.32295C3.55532 3.09056 3.82845 2.97437 4.14232 2.97437H15.8576C16.1715 2.97437 16.4446 3.09056 16.677 3.32295C16.9094 3.55532 17.0256 3.82845 17.0256 4.14232V15.8576C17.0256 16.1715 16.9094 16.4446 16.677 16.677C16.4446 16.9094 16.1715 17.0256 15.8576 17.0256H4.14232ZM4.14422 16.1121H15.8557C15.9198 16.1121 15.9786 16.0854 16.032 16.032C16.0854 15.9786 16.1121 15.9198 16.1121 15.8557V4.14422C16.1121 4.08012 16.0854 4.02136 16.032 3.96793C15.9786 3.91451 15.9198 3.8878 15.8557 3.8878H4.14422C4.08012 3.8878 4.02136 3.91451 3.96793 3.96793C3.91451 4.02136 3.8878 4.08012 3.8878 4.14422V15.8557C3.8878 15.9198 3.91451 15.9786 3.96793 16.032C4.02136 16.0854 4.08012 16.1121 4.14422 16.1121Z" fill="#56616B"/>
</g>
</svg>
