<svg width="20" height="20" viewBox="0 0 20 20" fill="none" xmlns="http://www.w3.org/2000/svg">
<mask id="mask0_14501_102" style="mask-type:alpha" maskUnits="userSpaceOnUse" x="0" y="0" width="20" height="20">
<rect width="20" height="20" fill="#D9D9D9"/>
</mask>
<g mask="url(#mask0_14501_102)">
<path d="M4.7213 16.1121H7.94086V11.6025C7.94086 11.4338 7.99738 11.293 8.11042 11.1799C8.22347 11.0669 8.36433 11.0104 8.53301 11.0104H11.4817C11.6393 11.0104 11.775 11.0669 11.8888 11.1799C12.0025 11.293 12.0594 11.4338 12.0594 11.6025V16.1121H15.279V8.30818C15.279 8.26544 15.2696 8.22671 15.2509 8.19199C15.2322 8.15727 15.2069 8.12655 15.1748 8.09984L10.1524 4.32849C10.1096 4.29643 10.0589 4.28041 10.0001 4.28041C9.94137 4.28041 9.89062 4.29643 9.84788 4.32849L4.82547 8.09984C4.79341 8.12655 4.76804 8.15727 4.74934 8.19199C4.73065 8.22671 4.7213 8.26544 4.7213 8.30818V16.1121ZM3.80786 16.1121V8.31566C3.80786 8.12423 3.84647 7.94821 3.92369 7.78761C4.00092 7.62703 4.11935 7.49161 4.27901 7.38136L9.30142 3.59453C9.50638 3.43748 9.73871 3.35895 9.9984 3.35895C10.2581 3.35895 10.4916 3.43748 10.6988 3.59453L15.7213 7.38136C15.8809 7.49161 15.9993 7.62703 16.0766 7.78761C16.1538 7.94821 16.1924 8.12423 16.1924 8.31566V16.1121C16.1924 16.3604 16.1022 16.5747 15.9219 16.755C15.7415 16.9354 15.5272 17.0256 15.279 17.0256H11.7381C11.5694 17.0256 11.4286 16.969 11.3155 16.856C11.2025 16.7429 11.146 16.6021 11.146 16.4334V11.9238H8.8543V16.4334C8.8543 16.6021 8.79757 16.7429 8.68411 16.856C8.57065 16.969 8.43534 17.0256 8.27817 17.0256H4.71492C4.47151 17.0256 4.25947 16.9354 4.07882 16.755C3.89818 16.5747 3.80786 16.3604 3.80786 16.1121Z" fill="#56616B"/>
</g>
</svg>
